<svg width="731" height="58" viewBox="0 0 731 58" fill="none" xmlns="http://www.w3.org/2000/svg">
<path d="M71.144 6.744L57.104 57H45.224L35.792 21.216L25.928 57L14.12 57.072L0.584 6.744H11.384L20.24 45.768L30.464 6.744H41.696L51.344 45.552L60.272 6.744H71.144ZM100.19 16.536C103.214 16.536 105.902 17.208 108.254 18.552C110.606 19.848 112.43 21.792 113.726 24.384C115.07 26.928 115.742 30 115.742 33.6V57H105.662V34.968C105.662 31.8 104.87 29.376 103.286 27.696C101.702 25.968 99.5418 25.104 96.8058 25.104C94.0218 25.104 91.8138 25.968 90.1818 27.696C88.5978 29.376 87.8058 31.8 87.8058 34.968V57H77.7258V3.72H87.8058V22.08C89.1018 20.352 90.8298 19.008 92.9898 18.048C95.1498 17.04 97.5498 16.536 100.19 16.536ZM162.407 36.192C162.407 37.632 162.311 38.928 162.119 40.08H132.959C133.199 42.96 134.207 45.216 135.983 46.848C137.759 48.48 139.943 49.296 142.535 49.296C146.279 49.296 148.943 47.688 150.527 44.472H161.399C160.247 48.312 158.039 51.48 154.775 53.976C151.511 56.424 147.503 57.648 142.751 57.648C138.911 57.648 135.455 56.808 132.383 55.128C129.359 53.4 126.983 50.976 125.255 47.856C123.575 44.736 122.735 41.136 122.735 37.056C122.735 32.928 123.575 29.304 125.255 26.184C126.935 23.064 129.287 20.664 132.311 18.984C135.335 17.304 138.815 16.464 142.751 16.464C146.543 16.464 149.927 17.28 152.903 18.912C155.927 20.544 158.255 22.872 159.887 25.896C161.567 28.872 162.407 32.304 162.407 36.192ZM151.967 33.312C151.919 30.72 150.983 28.656 149.159 27.12C147.335 25.536 145.103 24.744 142.463 24.744C139.967 24.744 137.855 25.512 136.127 27.048C134.447 28.536 133.415 30.624 133.031 33.312H151.967ZM179.845 23.304C181.141 21.192 182.821 19.536 184.885 18.336C186.997 17.136 189.397 16.536 192.085 16.536V27.12H189.421C186.253 27.12 183.853 27.864 182.221 29.352C180.637 30.84 179.845 33.432 179.845 37.128V57H169.765V17.112H179.845V23.304ZM235.954 36.192C235.954 37.632 235.858 38.928 235.666 40.08H206.506C206.746 42.96 207.754 45.216 209.53 46.848C211.306 48.48 213.49 49.296 216.082 49.296C219.826 49.296 222.49 47.688 224.074 44.472H234.946C233.794 48.312 231.586 51.48 228.322 53.976C225.058 56.424 221.05 57.648 216.298 57.648C212.458 57.648 209.002 56.808 205.93 55.128C202.906 53.4 200.53 50.976 198.802 47.856C197.122 44.736 196.282 41.136 196.282 37.056C196.282 32.928 197.122 29.304 198.802 26.184C200.482 23.064 202.834 20.664 205.858 18.984C208.882 17.304 212.362 16.464 216.298 16.464C220.09 16.464 223.474 17.28 226.45 18.912C229.474 20.544 231.802 22.872 233.434 25.896C235.114 28.872 235.954 32.304 235.954 36.192ZM225.514 33.312C225.466 30.72 224.53 28.656 222.706 27.12C220.882 25.536 218.65 24.744 216.01 24.744C213.514 24.744 211.402 25.512 209.674 27.048C207.994 28.536 206.962 30.624 206.578 33.312H225.514ZM265.58 12.36C263.804 12.36 262.316 11.808 261.116 10.704C259.964 9.552 259.388 8.136 259.388 6.456C259.388 4.776 259.964 3.384 261.116 2.28C262.316 1.128 263.804 0.551997 265.58 0.551997C267.356 0.551997 268.82 1.128 269.972 2.28C271.172 3.384 271.772 4.776 271.772 6.456C271.772 8.136 271.172 9.552 269.972 10.704C268.82 11.808 267.356 12.36 265.58 12.36ZM270.548 17.112V57H260.468V17.112H270.548ZM302.611 16.536C307.363 16.536 311.203 18.048 314.131 21.072C317.059 24.048 318.523 28.224 318.523 33.6V57H308.443V34.968C308.443 31.8 307.651 29.376 306.067 27.696C304.483 25.968 302.323 25.104 299.587 25.104C296.803 25.104 294.595 25.968 292.963 27.696C291.379 29.376 290.587 31.8 290.587 34.968V57H280.507V17.112H290.587V22.08C291.931 20.352 293.635 19.008 295.699 18.048C297.811 17.04 300.115 16.536 302.611 16.536ZM357.001 25.392V44.688C357.001 46.032 357.313 47.016 357.937 47.64C358.609 48.216 359.713 48.504 361.249 48.504H365.929V57H359.593C351.097 57 346.849 52.872 346.849 44.616V25.392H342.097V17.112H346.849V7.248H357.001V17.112H365.929V25.392H357.001ZM395.643 16.536C398.667 16.536 401.355 17.208 403.707 18.552C406.059 19.848 407.883 21.792 409.179 24.384C410.523 26.928 411.195 30 411.195 33.6V57H401.115V34.968C401.115 31.8 400.323 29.376 398.739 27.696C397.155 25.968 394.995 25.104 392.259 25.104C389.475 25.104 387.267 25.968 385.635 27.696C384.051 29.376 383.259 31.8 383.259 34.968V57H373.179V3.72H383.259V22.08C384.555 20.352 386.283 19.008 388.443 18.048C390.603 17.04 393.003 16.536 395.643 16.536ZM457.861 36.192C457.861 37.632 457.765 38.928 457.573 40.08H428.413C428.653 42.96 429.661 45.216 431.437 46.848C433.213 48.48 435.397 49.296 437.989 49.296C441.733 49.296 444.397 47.688 445.981 44.472H456.853C455.701 48.312 453.493 51.48 450.229 53.976C446.965 56.424 442.957 57.648 438.205 57.648C434.365 57.648 430.909 56.808 427.837 55.128C424.813 53.4 422.437 50.976 420.709 47.856C419.029 44.736 418.188 41.136 418.188 37.056C418.188 32.928 419.029 29.304 420.709 26.184C422.389 23.064 424.741 20.664 427.765 18.984C430.789 17.304 434.269 16.464 438.205 16.464C441.997 16.464 445.381 17.28 448.357 18.912C451.381 20.544 453.709 22.872 455.341 25.896C457.021 28.872 457.861 32.304 457.861 36.192ZM447.421 33.312C447.373 30.72 446.437 28.656 444.613 27.12C442.789 25.536 440.557 24.744 437.917 24.744C435.421 24.744 433.309 25.512 431.581 27.048C429.901 28.536 428.869 30.624 428.485 33.312H447.421ZM549.55 6.744L535.51 57H523.63L514.198 21.216L504.334 57L492.526 57.072L478.99 6.744H489.79L498.646 45.768L508.87 6.744H520.102L529.75 45.552L538.678 6.744H549.55ZM573.844 57.648C570.004 57.648 566.548 56.808 563.476 55.128C560.404 53.4 557.98 50.976 556.204 47.856C554.476 44.736 553.612 41.136 553.612 37.056C553.612 32.976 554.5 29.376 556.276 26.256C558.1 23.136 560.572 20.736 563.692 19.056C566.812 17.328 570.292 16.464 574.132 16.464C577.972 16.464 581.452 17.328 584.572 19.056C587.692 20.736 590.14 23.136 591.916 26.256C593.74 29.376 594.652 32.976 594.652 37.056C594.652 41.136 593.716 44.736 591.844 47.856C590.02 50.976 587.524 53.4 584.356 55.128C581.236 56.808 577.732 57.648 573.844 57.648ZM573.844 48.864C575.668 48.864 577.372 48.432 578.956 47.568C580.588 46.656 581.884 45.312 582.844 43.536C583.804 41.76 584.284 39.6 584.284 37.056C584.284 33.264 583.276 30.36 581.26 28.344C579.292 26.28 576.868 25.248 573.988 25.248C571.108 25.248 568.684 26.28 566.716 28.344C564.796 30.36 563.836 33.264 563.836 37.056C563.836 40.848 564.772 43.776 566.644 45.84C568.564 47.856 570.964 48.864 573.844 48.864ZM612.126 23.304C613.422 21.192 615.102 19.536 617.166 18.336C619.278 17.136 621.678 16.536 624.366 16.536V27.12H621.702C618.534 27.12 616.134 27.864 614.502 29.352C612.918 30.84 612.126 33.432 612.126 37.128V57H602.046V17.112H612.126V23.304ZM641.236 3.72V57H631.156V3.72H641.236ZM648.603 36.912C648.603 32.88 649.395 29.304 650.979 26.184C652.611 23.064 654.819 20.664 657.603 18.984C660.387 17.304 663.483 16.464 666.891 16.464C669.483 16.464 671.955 17.04 674.307 18.192C676.659 19.296 678.531 20.784 679.923 22.656V3.72H690.147V57H679.923V51.096C678.675 53.064 676.923 54.648 674.667 55.848C672.411 57.048 669.795 57.648 666.819 57.648C663.459 57.648 660.387 56.784 657.603 55.056C654.819 53.328 652.611 50.904 650.979 47.784C649.395 44.616 648.603 40.992 648.603 36.912ZM679.995 37.056C679.995 34.608 679.515 32.52 678.555 30.792C677.595 29.016 676.299 27.672 674.667 26.76C673.035 25.8 671.283 25.32 669.411 25.32C667.539 25.32 665.811 25.776 664.227 26.688C662.643 27.6 661.347 28.944 660.339 30.72C659.379 32.448 658.899 34.512 658.899 36.912C658.899 39.312 659.379 41.424 660.339 43.248C661.347 45.024 662.643 46.392 664.227 47.352C665.859 48.312 667.587 48.792 669.411 48.792C671.283 48.792 673.035 48.336 674.667 47.424C676.299 46.464 677.595 45.12 678.555 43.392C679.515 41.616 679.995 39.504 679.995 37.056ZM714.031 5.016C719.023 5.016 723.031 6.384 726.055 9.12C729.127 11.808 730.663 15.528 730.663 20.28C730.663 24.984 729.151 28.584 726.127 31.08C723.103 33.528 719.095 34.752 714.103 34.752L713.815 40.296H704.959L704.599 28.056H707.839C712.015 28.056 715.231 27.504 717.487 26.4C719.743 25.296 720.871 23.28 720.871 20.352C720.871 18.24 720.247 16.56 718.999 15.312C717.799 14.064 716.143 13.44 714.031 13.44C711.823 13.44 710.095 14.04 708.847 15.24C707.647 16.44 707.047 18.096 707.047 20.208H697.543C697.495 17.28 698.119 14.664 699.415 12.36C700.711 10.056 702.607 8.256 705.103 6.96C707.647 5.664 710.623 5.016 714.031 5.016ZM709.351 57.504C707.527 57.504 706.015 56.952 704.815 55.848C703.663 54.696 703.087 53.28 703.087 51.6C703.087 49.92 703.663 48.528 704.815 47.424C706.015 46.272 707.527 45.696 709.351 45.696C711.127 45.696 712.591 46.272 713.743 47.424C714.895 48.528 715.471 49.92 715.471 51.6C715.471 53.28 714.895 54.696 713.743 55.848C712.591 56.952 711.127 57.504 709.351 57.504Z" fill="#d7d7d7"/>
</svg>
